<svg width="25" height="24" viewBox="0 0 25 24" fill="none" xmlns="http://www.w3.org/2000/svg">
<path d="M12.5 16C14.7091 16 16.5 14.2091 16.5 12C16.5 9.79086 14.7091 8 12.5 8C10.2909 8 8.5 9.79086 8.5 12C8.5 14.2091 10.2909 16 12.5 16Z" stroke="#5F5F5F" stroke-width="2" stroke-linecap="round" stroke-linejoin="round"/>
<path d="M19.6671 7.94004L19.6013 7.82619C19.4199 7.51217 19.3273 7.15475 19.3334 6.79216L19.3634 5.01333C19.3695 4.64981 19.1778 4.3116 18.8628 4.13007L16.1261 2.55307C15.8119 2.372 15.4243 2.37524 15.1131 2.56155L13.594 3.47113C13.2836 3.65704 12.9285 3.75522 12.5666 3.75522H12.4349C12.0722 3.75522 11.7164 3.65661 11.4055 3.46994L9.8794 2.55377C9.56716 2.36632 9.1777 2.36344 8.86272 2.54625L6.13473 4.12954C5.82124 4.31149 5.63075 4.64883 5.63685 5.01125L5.66681 6.79216C5.67291 7.15475 5.58031 7.51217 5.39892 7.82619L5.33403 7.93852C5.15254 8.25271 4.889 8.5116 4.57164 8.68748L3.01675 9.54914C2.69805 9.72576 2.50064 10.0617 2.50147 10.4261L2.50863 13.5779C2.50945 13.9401 2.70601 14.2735 3.02248 14.4495L4.5699 15.3104C4.88835 15.4875 5.15235 15.7483 5.33337 16.0646L5.4029 16.186C5.58174 16.4985 5.67293 16.8534 5.66685 17.2133L5.63692 18.9865C5.63078 19.35 5.82245 19.6882 6.13749 19.8698L8.87412 21.4468C9.18835 21.6278 9.57598 21.6246 9.88713 21.4383L11.4062 20.5287C11.7167 20.3428 12.0718 20.2446 12.4337 20.2446H12.5654C12.928 20.2446 13.2838 20.3432 13.5948 20.5299L15.1208 21.4461C15.4331 21.6335 15.8226 21.6364 16.1375 21.4536L18.8655 19.8703C19.179 19.6884 19.3695 19.351 19.3634 18.9886L19.3334 17.2077C19.3273 16.8451 19.4199 16.4877 19.6013 16.1737L19.6662 16.0613C19.8477 15.7471 20.1112 15.4882 20.4286 15.3124L21.9835 14.4507C22.3022 14.2741 22.4996 13.9381 22.4988 13.5738L22.4916 10.4219C22.4908 10.0598 22.2942 9.72638 21.9778 9.55032L20.4266 8.68741C20.1105 8.51156 19.848 8.25327 19.6671 7.94004Z" stroke="#5F5F5F" stroke-width="2" stroke-linecap="round" stroke-linejoin="round"/>
</svg>
