<svg width="14" height="14" viewBox="0 0 14 14" fill="none" xmlns="http://www.w3.org/2000/svg">
<g clip-path="url(#clip0_0_150)">
<path d="M2.91663 8.74996H2.33329C2.02387 8.74996 1.72713 8.62704 1.50833 8.40825C1.28954 8.18946 1.16663 7.89271 1.16663 7.58329V2.33329C1.16663 2.02387 1.28954 1.72713 1.50833 1.50833C1.72713 1.28954 2.02387 1.16663 2.33329 1.16663H7.58329C7.89271 1.16663 8.18946 1.28954 8.40825 1.50833C8.62704 1.72713 8.74996 2.02387 8.74996 2.33329V2.91663M6.41663 5.24996H11.6666C12.311 5.24996 12.8333 5.77229 12.8333 6.41663V11.6666C12.8333 12.311 12.311 12.8333 11.6666 12.8333H6.41663C5.77229 12.8333 5.24996 12.311 5.24996 11.6666V6.41663C5.24996 5.77229 5.77229 5.24996 6.41663 5.24996Z" stroke="#00FFA3" stroke-width="1.16667" stroke-linecap="round" stroke-linejoin="round"/>
</g>
<defs>
<clipPath id="clip0_0_150">
<rect width="14" height="14" fill="white"/>
</clipPath>
</defs>
</svg>
