<svg width="25" height="24" viewBox="0 0 25 24" fill="none" xmlns="http://www.w3.org/2000/svg">
<path fill-rule="evenodd" clip-rule="evenodd" d="M3.5 6C3.5 4.34315 4.84315 3 6.5 3H8.5C10.1569 3 11.5 4.34315 11.5 6V8C11.5 9.65685 10.1569 11 8.5 11H6.5C4.84315 11 3.5 9.65685 3.5 8V6Z" fill="#5F5F5F"/>
<path fill-rule="evenodd" clip-rule="evenodd" d="M13.5 6C13.5 4.34315 14.8431 3 16.5 3H18.5C20.1569 3 21.5 4.34315 21.5 6V8C21.5 9.65685 20.1569 11 18.5 11H16.5C14.8431 11 13.5 9.65685 13.5 8V6Z" fill="#5F5F5F"/>
<path fill-rule="evenodd" clip-rule="evenodd" d="M3.5 16C3.5 14.3431 4.84315 13 6.5 13H8.5C10.1569 13 11.5 14.3431 11.5 16V18C11.5 19.6569 10.1569 21 8.5 21H6.5C4.84315 21 3.5 19.6569 3.5 18V16Z" fill="#5F5F5F"/>
<path fill-rule="evenodd" clip-rule="evenodd" d="M13.5 16C13.5 14.3431 14.8431 13 16.5 13H18.5C20.1569 13 21.5 14.3431 21.5 16V18C21.5 19.6569 20.1569 21 18.5 21H16.5C14.8431 21 13.5 19.6569 13.5 18V16Z" fill="#5F5F5F"/>
</svg>
