<?xml version="1.0" standalone="no"?>
<!DOCTYPE svg PUBLIC "-//W3C//DTD SVG 1.1//EN" "http://www.w3.org/Graphics/SVG/1.1/DTD/svg11.dtd" >
<svg>
<metadata>
Created by FontForge 20120731 at Wed May  8 08:04:47 2019
 By www-data
Copyright (C) 2019 Webhance Studio.
</metadata>
<defs>
<font id="CarbonText-Regular" horiz-adv-x="170" >
  <font-face 
    font-family="Carbon Text"
    font-weight="400"
    font-stretch="normal"
    units-per-em="1000"
    panose-1="0 0 5 0 0 0 0 0 0 0"
    ascent="750"
    descent="-250"
    x-height="507"
    cap-height="742"
    bbox="12 -277 1051 873"
    underline-thickness="50"
    underline-position="-100"
    unicode-range="U+000D-007D"
  />
<missing-glyph horiz-adv-x="300" 
 />
    <glyph glyph-name=".notdef" horiz-adv-x="300" 
 />
    <glyph glyph-name="space" unicode=" " horiz-adv-x="300" 
 />
    <glyph glyph-name="uni0000" horiz-adv-x="0" 
 />
    <glyph glyph-name="uni0000" horiz-adv-x="0" 
 />
    <glyph glyph-name="uni000D" unicode="&#xd;" horiz-adv-x="333" 
 />
    <glyph glyph-name="exclam" unicode="!" horiz-adv-x="187" 
d="M140.5 113.5q19.5 -19.5 19.5 -47.5q0 -27 -19.5 -46.5t-46.5 -19.5q-28 0 -47.5 19.5t-19.5 46.5q0 28 19.5 47.5t47.5 19.5q27 0 46.5 -19.5zM15 782h157l-24 -600l-109 -1z" />
    <glyph glyph-name="quotedbl" unicode="&#x22;" horiz-adv-x="276" 
d="M15 556l12 186h104l-46 -186h-70zM145 556l12 186h104l-46 -186h-70z" />
    <glyph glyph-name="numbersign" unicode="#" horiz-adv-x="765" 
d="M604 447l-40 -152h117v-116h-148l-48 -179h-121l48 179h-158l-48 -179h-121l48 179h-118v116h149l41 152h-121v116h152l57 213h120l-57 -213h159l57 213h120l-57 -213h115v-116h-146zM484 447h-159l-40 -152h158z" />
    <glyph glyph-name="dollar" unicode="$" horiz-adv-x="479" 
d="M464 189q0 -29 -7 -50q-16 -56 -63 -97t-109 -54v-68h-70v64q-40 3 -71 16q-76 29 -129 99l96 75q34 -43 77 -60q5 -2 27 -8v239l-6 7l-94 90q-45 42 -61 93q-8 29 -8 51q0 27 7 47q14 50 54.5 85t95.5 46l12 2v66h70v-68q16 -3 33 -9q60 -22 105 -79l-95 -76
q-18 25 -43 37v-189l43 -43v0l27 -25q44 -40 65.5 -66t34.5 -67q9 -28 9 -58zM215 514v128q-21 -7 -34.5 -22t-13.5 -32q0 -26 32 -58zM305 260l-20 19v-164q26 12 41.5 31.5t15.5 42.5q0 37 -37 71z" />
    <glyph glyph-name="percent" unicode="%" horiz-adv-x="610" 
d="M459 742h96l-405 -742h-96zM77 407q-24 15 -39 43q-23 44 -23 117t23 117q13 27 37 42.5t56 15.5q31 0 55.5 -16t37.5 -42q23 -43 23 -117q0 -73 -23 -117q-13 -26 -38 -42t-55 -16t-54 15zM98 637q-13 -22 -13 -70q0 -47 13 -69q10 -22 33 -22q46 0 46 91q0 49 -12 70
q-10 21 -34 21q-22 0 -33 -21zM572 292q23 -44 23 -117t-23 -117q-13 -27 -37 -42.5t-56 -15.5q-62 0 -93 58q-23 43 -23 117t23 117q13 26 37.5 42t55.5 16q62 0 93 -58zM514 101q14 26 14 74t-14 74q-12 22 -35 22q-24 0 -36 -22q-13 -25 -13 -74t13 -74q12 -22 36 -22
q23 0 35 22z" />
    <glyph glyph-name="ampersand" unicode="&#x26;" horiz-adv-x="515" 
d="M500 243v-294h-111v71q-47 -19 -107 -19q-53 0 -100.5 16.5t-84.5 47.5q-38 31 -60 75t-22 92q0 40 15 78t43 69q14 14 29 26q-27 26 -44 58.5t-17 80.5q0 42 18.5 79.5t51.5 64.5q31 26 71.5 40t84.5 14q59 0 113 -26.5t84 -73.5l-92 -60q-15 24 -43.5 37t-61.5 13
q-50 0 -83 -26.5t-33 -61.5q0 -44 46 -72q64 -40 207 -40v-110q-111 0 -186 22q-41 -13 -67 -44t-26 -68q0 -30 21 -58t57 -45.5t79 -17.5q63 0 107 34v98h111z" />
    <glyph glyph-name="quotesingle" unicode="'" horiz-adv-x="146" 
d="M15 556l12 186h104l-46 -186h-70z" />
    <glyph glyph-name="parenleft" unicode="(" horiz-adv-x="301" 
d="M204 -133q-90 91 -139.5 222t-49.5 281t49.5 281t139.5 222l82 -82q-72 -73 -113.5 -183.5t-41.5 -237.5t41.5 -237.5t113.5 -183.5z" />
    <glyph glyph-name="parenright" unicode=")" horiz-adv-x="301" 
d="M15 -51q71 71 113 183t42 238t-42 238t-113 183l82 82q90 -90 139.5 -222t49.5 -281t-49.5 -280t-138.5 -223z" />
    <glyph glyph-name="asterisk" unicode="*" horiz-adv-x="248" 
d="M172 633l43 -51l-65 -37l-22 62l-22 -62l-65 37l42 50l-68 5l20 73l67 -32l-12 64h75l-11 -60l59 28l20 -73z" />
    <glyph glyph-name="plus" unicode="+" horiz-adv-x="492" 
d="M477 321h-181v-181h-100v181h-181v100h181v181h100v-181h181v-100z" />
    <glyph glyph-name="comma" unicode="," 
d="M150 44v0l-53 -151h-40l24 107q-28 2 -47 22t-19 48q0 29 20.5 49t49.5 20t49.5 -20.5t20.5 -48.5q0 -11 -5 -26z" />
    <glyph glyph-name="hyphen" unicode="-" horiz-adv-x="342" 
d="M15 321v100h312v-100h-312z" />
    <glyph glyph-name="period" unicode="." 
d="M134.5 20.5q-20.5 -20.5 -49.5 -20.5t-49.5 20.5t-20.5 49.5t20.5 49.5t49.5 20.5t49.5 -20.5t20.5 -49.5t-20.5 -49.5z" />
    <glyph glyph-name="slash" unicode="/" horiz-adv-x="365" 
d="M15 -97l219 928h116l-219 -928h-116z" />
    <glyph glyph-name="zero" unicode="0" horiz-adv-x="596" 
d="M79 125q-32 50 -49.5 114t-17.5 133t17 133t49 114q84 123 220 123q73 0 129 -35q51 -29 86 -82t54 -121q17 -66 17 -134q0 -69 -17 -132.5t-49 -113.5q-37 -58 -93.5 -91t-124.5 -33q-140 0 -221 125zM141 472q-13 -46 -13 -100q0 -52 12.5 -100t35.5 -84
q47 -72 124 -72q114 0 155 153q12 48 12 101q0 52 -12.5 100t-34.5 84q-47 72 -122 72q-118 0 -157 -154z" />
    <glyph glyph-name="one" unicode="1" horiz-adv-x="301" 
d="M289 0h-116v491l116 89v-580zM12 535l277 207v-141l-208 -159z" />
    <glyph glyph-name="two" unicode="2" horiz-adv-x="545" 
d="M533 118v-118h-352l87 118h265zM12 0l72 94l275 365q34 46 40 84l1 12q0 41 -39 60q-20 10 -46 10q-43 0 -73.5 -27.5t-40.5 -71.5l-104 61q21 59 69 100.5t114 52.5q18 3 35 3q56 0 103.5 -25t73.5 -69q25 -40 25 -92q0 -17 -2 -31q-9 -67 -62 -137l-105 -141
q-103 -138 -188 -248h-148z" />
    <glyph glyph-name="three" unicode="3" horiz-adv-x="551" 
d="M468 742l-133 -242q52 -12 94 -36q72 -45 98 -122q12 -36 12 -75q0 -84 -51 -154q-23 -33 -56 -58q-73 -55 -169 -55h-17q-114 7 -234 90l66 95q99 -69 185 -69q54 0 90.5 24t54.5 61q16 32 16 66q0 20 -6 38q-33 88 -175 88l-99 -1l193 350h131zM59 627v115h265
l-66 -115h-199z" />
    <glyph glyph-name="four" unicode="4" horiz-adv-x="581" 
d="M383 431l-138 -185h324v-116h-70v-130h-116v130h-371l487 651v-526h-116v176z" />
    <glyph glyph-name="five" unicode="5" horiz-adv-x="532" 
d="M77 185q103 -69 186 -69q55 0 90.5 27.5t47.5 71.5q4 20 4 31q0 23 -9 44q-20 43 -68 63.5t-117 20.5q-25 0 -73 -5l-75 -11l11 88q87 40 166 40q59 0 116 -20t92 -53q72 -67 72 -168q0 -53 -23 -102t-65 -84q-71 -59 -170 -59h-13q-115 4 -237 89zM111 742h354v-115
h-252l-15 -136q-11 0 -60 -14.5t-62 -20.5z" />
    <glyph glyph-name="six" unicode="6" horiz-adv-x="511" 
d="M12 312q0 76 23 151.5t65 136.5q52 73 118.5 107.5t141.5 34.5q21 0 28 -1v-117q-14 2 -30 2q-46 0 -88.5 -22.5t-74.5 -70.5q-32 -47 -49.5 -106t-17.5 -117q0 -81 34.5 -137.5t106.5 -56.5q49 0 81.5 36.5t32.5 87.5q0 49 -30 78t-91 29q-35 0 -69 -10.5t-56 -28.5
q0 28 6.5 68.5t17.5 64.5q77 19 133 19q46 0 79.5 -15.5t66.5 -50.5q29 -30 44 -69.5t15 -84.5q0 -44 -15.5 -86.5t-43.5 -75.5q-32 -38 -76 -58t-95 -20q-72 0 -128 34.5t-89 98.5q-40 76 -40 179z" />
    <glyph glyph-name="seven" unicode="7" horiz-adv-x="494" 
d="M482 742l-342 -742h-128l288 626l57 116h125zM14 626v116h330l-55 -116h-275z" />
    <glyph glyph-name="eight" unicode="8" horiz-adv-x="519" 
d="M444 385q30 -33 46.5 -73t16.5 -84q0 -45 -16.5 -85.5t-46.5 -71.5q-30 -32 -75 -51.5t-105 -19.5t-107 19t-79 51q-32 31 -49 72t-17 86t17 86t48 72l18 16q-28 28 -43 64t-15 76q0 39 15.5 75.5t43.5 64.5q64 60 166 60q101 0 163 -62q28 -28 43 -64t15 -76
q0 -39 -15 -75t-42 -64zM153 542q0 -36 29 -61t82 -25q49 0 75.5 24t26.5 60q0 37 -27.5 61.5t-76.5 24.5q-56 0 -85 -28q-24 -22 -24 -56zM390 228q0 41 -21 66t-51 37q-25 9 -56 9q-57 0 -95.5 -30t-38.5 -82q0 -48 35.5 -80t100.5 -32q61 0 97 36q29 29 29 76z" />
    <glyph glyph-name="nine" unicode="9" horiz-adv-x="511" 
d="M499 430q0 -76 -23 -151.5t-65 -136.5q-52 -73 -118.5 -107.5t-141.5 -34.5q-21 0 -28 1v117q14 -2 30 -2q46 0 88.5 22.5t74.5 70.5q32 47 49.5 106t17.5 117q0 81 -34.5 137.5t-106.5 56.5q-49 0 -81.5 -36.5t-32.5 -87.5q0 -49 30.5 -78t90.5 -29q35 0 69 10.5
t56 28.5q0 -28 -6.5 -68.5t-17.5 -64.5q-77 -19 -133 -19q-46 0 -79.5 15.5t-66.5 50.5q-29 30 -44 69.5t-15 84.5q0 44 15.5 86.5t43.5 75.5q32 38 76 58t95 20q72 0 128 -34.5t89 -98.5q40 -76 40 -179z" />
    <glyph glyph-name="colon" unicode=":" 
d="M134.5 414q-20.5 -21 -49.5 -21t-49.5 20.5t-20.5 49.5t20.5 49.5t49.5 20.5t49.5 -20.5t20.5 -49.5q0 -28 -20.5 -49zM134.5 20.5q-20.5 -20.5 -49.5 -20.5t-49.5 20.5t-20.5 49.5t20.5 49.5t49.5 20.5t49.5 -20.5t20.5 -49.5t-20.5 -49.5z" />
    <glyph glyph-name="semicolon" unicode=";" 
d="M150 44v0l-53 -151h-40l24 107q-28 2 -47 22t-19 48q0 29 20.5 49t49.5 20t49.5 -20.5t20.5 -48.5q0 -11 -5 -26zM134.5 414q-20.5 -21 -49.5 -21t-49.5 20.5t-20.5 49.5t20.5 49.5t49.5 20.5t49.5 -20.5t20.5 -49.5q0 -28 -20.5 -49z" />
    <glyph glyph-name="less" unicode="&#x3c;" horiz-adv-x="390" 
d="M15 373l219 220h141l-220 -221l220 -223h-141z" />
    <glyph glyph-name="equal" unicode="=" horiz-adv-x="443" 
d="M15 512h413v-100h-413v100zM15 330h413v-100h-413v100z" />
    <glyph glyph-name="greater" unicode="&#x3e;" horiz-adv-x="390" 
d="M15 149l219 223l-219 221h140l220 -220l-220 -224h-140z" />
    <glyph glyph-name="question" unicode="?" horiz-adv-x="519" 
d="M279.5 114.5q19.5 -19.5 19.5 -47.5t-19.5 -47.5t-47.5 -19.5t-47.5 19.5t-19.5 47.5t19.5 47.5t47.5 19.5t47.5 -19.5zM504 590q0 -16 -4 -37q-16 -80 -94 -167l-18 -18q-42 -42 -65.5 -87.5t-26.5 -99.5h-123q5 79 37 141t86 119l14 13q51 57 64 100q7 21 7 35
q0 27 -17 47.5t-56 31.5q-25 5 -41 5q-67 0 -101 -39q-26 -29 -28 -75h-123q3 80 49 135.5t123 76.5q42 11 80 11q63 0 117.5 -24t85.5 -66q34 -46 34 -102z" />
    <glyph glyph-name="at" unicode="@" horiz-adv-x="658" 
d="M39.5 493q24.5 59 69.5 104q45 42 101 67q30 13 56.5 19t57.5 6q66 0 128.5 -27t97.5 -65q46 -51 69.5 -108.5t23.5 -117.5q0 -55 -21 -97.5t-56 -65.5t-72 -23q-30 0 -55.5 16t-40.5 46q-34 -28 -85 -28q-48 0 -76 23.5t-28 63.5q0 42 31.5 66t90.5 27l57 3q0 27 -5 39
t-19 17q-17 5 -44 5q-21 0 -47 -4t-41 -10v53q19 6 49 10.5t51 4.5q60 0 92 -18t32 -54q0 -17 -9 -40q-19 -48 -19 -87q0 -40 18 -63t46 -23q31 0 52 29t21 78q0 16 -2 32q-9 57 -25.5 98t-45.5 70q-34 34 -77.5 52.5t-90.5 18.5q-87 0 -158 -71q-34 -34 -52.5 -77
t-18.5 -91t18.5 -91t52.5 -77q71 -71 158 -71l29 2v-80l-29 -1q-31 0 -57.5 6t-56.5 19q-57 24 -102.5 71t-66.5 98q-26 61 -26 124t24.5 122zM295 283q13 -10 36 -10q18 0 29.5 3.5t30.5 14.5v61l-51 -3q-58 -3 -58 -38q0 -18 13 -28z" />
    <glyph glyph-name="A" unicode="A" horiz-adv-x="669" 
d="M335 464l-90 -201h162l43 -104h-247l-63 -159h-128l323 751l322 -751h-127l-63 159l-42 104z" />
    <glyph glyph-name="B" unicode="B" horiz-adv-x="495" 
d="M12 742h220q63 0 109.5 -20t75.5 -54q55 -63 60 -156v-12q1 -5 1 -12q-1 -4 -1 -10q-10 -238 -285 -227h-64v-153h155q45 0 69 24q20 20 20 57q0 44 -26 76q54 18 97 64l12 -24q28 -53 28 -101q0 -40 -10.5 -77.5t-29.5 -60.5q-48 -55 -136 -55l-295 -1v742zM232 355
q70 0 105 36.5t35 104.5t-34.5 104.5t-105.5 36.5h-104v-282h104z" />
    <glyph glyph-name="C" unicode="C" horiz-adv-x="600" 
d="M588 61q-34 -21 -60 -32q-72 -29 -145 -29q-74 0 -142 28.5t-120 80.5t-80.5 120t-28.5 142t28.5 142.5t80.5 120.5q54 54 118 79q66 29 144 29q76 0 145 -29l16 -7v-137q-69 57 -161 57q-51 0 -97.5 -19t-82.5 -56q-36 -36 -55.5 -82.5t-19.5 -97.5t19.5 -97.5
t55.5 -82.5t82.5 -55.5t97.5 -19.5t97.5 19.5t82.5 55.5q13 13 25 28v-158z" />
    <glyph glyph-name="D" unicode="D" horiz-adv-x="571" 
d="M12 742h114l2 -116v-510h60q128 0 195 73q29 32 44.5 79t15.5 103q0 57 -15.5 103.5t-44.5 78.5q-66 73 -195 73h-41l-2 116h43q182 0 281 -111q44 -49 67 -115t23 -145t-23 -145t-67 -115q-49 -55 -120.5 -83t-160.5 -28h-176v742z" />
    <glyph glyph-name="E" unicode="E" horiz-adv-x="469" 
d="M349 440v-105h-204v105h204zM457 105v-105h-445v742h445v-104h-329v-533h329z" />
    <glyph glyph-name="F" unicode="F" horiz-adv-x="458" 
d="M12 742h446v-104h-330v-638h-116v742zM145 440h204v-105h-204v105z" />
    <glyph glyph-name="G" unicode="G" horiz-adv-x="626" 
d="M12 390q11 146 109 244q54 54 118 79q66 29 144 29h19q7 0 9 -1q64 -4 125 -31v0q0 -1 1 -1l6 -3h1v-137q-17 16 -44 29t-52 20q-2 0 -3 1h-3q-1 1 -4 1l-2 1l-13 2h-2l-4 1h-2q-3 0 -4 1h-9l-3 1h-16q-72 0 -131 -36l-5 -3q-23 -15 -44 -36l-13 -13v0q0 -1 -1 -1
q-11 -14 -13 -18l-2 -2l-6 -9l-2 -4q-21 -33 -31 -76l-1 -2q-2 -8 -5 -30v-11q-1 -3 -1 -14q0 -10 1 -13q2 -29 9 -56q14 -50 48 -91.5t83 -66t106 -24.5q51 0 108.5 22t130.5 68v-131l-26 -18l-2 -1l-4 -2q-4 -4 -7 -4l-4 -3l-6 -4l-5 -2l-3 -2q-2 -2 -5 -2l-2 -2h-2l-5 -3
l-7 -3l-1 -1q-63 -28 -133 -32h-19q-64 0 -117 19h-1l-11 4l-15 6q-19 7 -36 18q-50 27 -93 72.5t-69 107.5q-23 56 -27 107l-2 37v19zM358 385h256v-157l-30 -20q-30 -19 -86 -46v118h-140v105z" />
    <glyph glyph-name="H" unicode="H" horiz-adv-x="552" 
d="M424 425v317h116v-742h-116v320h-283v105h283zM12 0v742h116v-742h-116z" />
    <glyph glyph-name="I" unicode="I" horiz-adv-x="140" 
d="M12 0v742h116v-742h-116z" />
    <glyph glyph-name="J" unicode="J" horiz-adv-x="335" 
d="M323 252q0 -121 -84 -192q-34 -29 -80.5 -44.5t-99.5 -15.5q-24 0 -47 3v119q23 -6 47 -6q67 0 107 35t40 101v490h117v-490z" />
    <glyph glyph-name="K" unicode="K" horiz-adv-x="587" 
d="M374 742h146l-272 -357l327 -385h-145l-290 334v105zM12 0v742h116v-742h-116z" />
    <glyph glyph-name="L" unicode="L" horiz-adv-x="450" 
d="M438 105v-105h-295v105h295zM12 0v742h116l-2 -742h-114z" />
    <glyph glyph-name="M" unicode="M" horiz-adv-x="722" 
d="M128 0h-116v512l116 -146v-366zM12 776l349 -520l349 520v-776h-117v394l-232 -346l-233 346l-116 157v225z" />
    <glyph glyph-name="N" unicode="N" horiz-adv-x="607" 
d="M128 0h-116v561l116 -107v-454zM12 751l466 -485v476h117v-746l-467 481l-116 116v158z" />
    <glyph glyph-name="O" unicode="O" horiz-adv-x="766" 
d="M241 28.5q-68 28.5 -120 80.5t-80.5 120t-28.5 142t28 141t81 122q51 51 119 79.5t143 28.5q74 0 142 -28.5t121 -79.5q51 -53 79.5 -121t28.5 -142t-28.5 -142.5t-79.5 -119.5q-55 -53 -122 -81t-141 -28t-142 28.5zM285.5 606.5q-46.5 -19.5 -82.5 -55.5t-55.5 -82.5
t-19.5 -97.5t19.5 -97.5t55.5 -82.5t82.5 -55.5t97.5 -19.5t97.5 19.5t82.5 55.5t55.5 82.5t19.5 97.5t-19.5 97.5t-55.5 82.5t-82.5 55.5t-97.5 19.5t-97.5 -19.5z" />
    <glyph glyph-name="P" unicode="P" horiz-adv-x="489" 
d="M232 356q70 0 105.5 37t35.5 104q0 66 -36 103.5t-105 37.5h-104v-638h-116v742h98h122q62 0 108.5 -20t76.5 -53q60 -66 60 -172q0 -107 -60 -172q-29 -34 -75.5 -54t-109.5 -20h-89v105h89z" />
    <glyph glyph-name="Q" unicode="Q" horiz-adv-x="766" 
d="M514 268l54 -73q34 36 52 81.5t18 94.5q0 51 -19.5 97.5t-55.5 82.5t-82.5 55.5t-97.5 19.5t-97.5 -19.5t-82.5 -55.5t-55.5 -82.5t-19.5 -97.5t19.5 -97.5t55.5 -82.5t82.5 -55.5t97.5 -19.5q40 0 76 12l73 -97l-4 -2q-72 -29 -145 -29q-74 0 -142 28.5t-120 80.5
t-80.5 120t-28.5 142t28.5 142.5t80.5 120.5q48 49 118 79q66 29 144 29q76 0 144.5 -29t118.5 -79t79 -118.5t29 -144.5q0 -77 -28 -143.5t-80 -118.5l-8 -8l67 -88l-88 -65l-191 255z" />
    <glyph glyph-name="R" unicode="R" horiz-adv-x="543" 
d="M128 251v-251h-116v742h220q63 0 109.5 -20t75.5 -54q32 -36 47.5 -85t12.5 -106v40q6 -140 -65.5 -205.5t-219.5 -60.5h-64zM232 355q70 0 105 36.5t35 104.5t-34.5 104.5t-105.5 36.5h-104v-282h104zM246 235q31 1 69 10l20 5l196 -250h-131l-182 234z" />
    <glyph glyph-name="S" unicode="S" horiz-adv-x="454" 
d="M104 183q31 -42 73 -58q21 -9 44 -9q12 0 24 3q34 6 57 28.5t23 50.5q0 33 -36 67q-50 47 -91 88l-91 86q-42 41 -57 89q-8 29 -8 51t6 43q13 47 53 81.5t91 43.5q15 4 41 4q34 0 69 -12q57 -22 101 -75l-91 -73q-35 44 -81 44q-29 0 -51 -17.5t-22 -39.5q0 -25 30 -55
l124 -119l56 -54q48 -44 65 -97q9 -27 9 -56q0 -27 -7 -48q-16 -54 -61 -93.5t-106 -51.5q-17 -4 -45 -4q-49 0 -88 16q-71 28 -123 95z" />
    <glyph glyph-name="T" unicode="T" horiz-adv-x="549" 
d="M12 742h321v-742h-117v638h-204v104zM351 742h186v-104h-186v104z" />
    <glyph glyph-name="U" unicode="U" horiz-adv-x="574" 
d="M187 15q-48 15 -84 44q-44 34 -67.5 82.5t-23.5 110.5v490h116v-490q0 -67 46 -101q21 -17 50.5 -26t62.5 -9t62.5 9t50.5 26q45 35 45 101v490h117v-490q0 -59 -24 -109t-67 -84q-36 -29 -84 -44t-100 -15t-100 15z" />
    <glyph glyph-name="V" unicode="V" horiz-adv-x="682" 
d="M352 -33l-340 775h128l270 -633zM544 742h126l-251 -613l-61 141z" />
    <glyph glyph-name="W" unicode="W" horiz-adv-x="1063" 
d="M732 -33l-196 447l-184 -447l-340 775h128l209 -489l123 308l60 153l65 -151l197 -445zM924 742h127l-248 -603l-62 144z" />
    <glyph glyph-name="X" unicode="X" horiz-adv-x="711" 
d="M553 0l-198 290l-197 -290h-146l270 397l-235 345h146l506 -742h-146zM518 742h146l-227 -330l-74 107z" />
    <glyph glyph-name="Y" unicode="Y" horiz-adv-x="661" 
d="M137 742l193 -262l59 -92v-388h-116v388l-261 354h125zM525 742h124l-248 -339l-59 88z" />
    <glyph glyph-name="Z" unicode="Z" horiz-adv-x="612" 
d="M590 116v-116h-423l68 116h355zM12 0l381 626h-298v116h505l-452 -742h-136z" />
    <glyph glyph-name="bracketleft" unicode="[" horiz-adv-x="252" 
d="M131 -58h106v-70h-222v996h222v-70h-106v-856z" />
    <glyph glyph-name="backslash" unicode="\" horiz-adv-x="365" 
d="M15 831h116l219 -928h-116z" />
    <glyph glyph-name="bracketright" unicode="]" horiz-adv-x="252" 
d="M15 798v70h222v-996h-222v70h106v856h-106z" />
    <glyph glyph-name="asciicircum" unicode="^" horiz-adv-x="479" 
d="M464 367h-108l-105 168l60 89zM15 367l231 375l56 -103l-177 -272h-110z" />
    <glyph glyph-name="underscore" unicode="_" horiz-adv-x="654" 
d="M15 -170v100h624v-100h-624z" />
    <glyph glyph-name="grave" unicode="`" horiz-adv-x="189" 
d="M101 619l-86 123h110l49 -123h-73z" />
    <glyph glyph-name="a" unicode="a" horiz-adv-x="472" 
d="M279 106.5q-21 -5.5 -54 -5.5q-41 0 -63.5 17t-22.5 48q0 64 100 67l67 2l-2 87l-79 -1q-101 -1 -157 -44.5t-56 -119.5q0 -69 49 -110.5t132 -41.5q89 0 149 48l1 -45h114v323q0 104 -53.5 150t-177.5 46q-38 0 -90 -7.5t-85 -19.5v-93q26 11 71 17.5t84 6.5q50 0 76 -8
q22 -8 30.5 -23.5t11.5 -43.5q3 -48 4 -127l2 -99q-30 -18 -51 -23.5z" />
    <glyph glyph-name="b" unicode="b" horiz-adv-x="522" 
d="M112 -2l1 41q70 -40 136 -40q123 0 192 71t69 196q0 86 -34 147.5t-97 90.5q-66 26 -118 26q-62 0 -102 -10v-96q29 7 73 7q147 0 147 -172q0 -78 -39 -119t-112 -41q-51 0 -88 25v606h-128v-732h100z" />
    <glyph glyph-name="c" unicode="c" horiz-adv-x="436" 
d="M424 499q-60 26 -147 26q-124 0 -194.5 -67t-70.5 -186q0 -79 33 -139.5t93 -93.5q59 -34 139 -34q77 0 147 27v101q-53 -16 -75 -21t-51 -5q-71 0 -113 45t-42 120q0 76 39.5 114.5t115.5 38.5q29 0 50.5 -4.5t75.5 -22.5v101z" />
    <glyph glyph-name="d" unicode="d" horiz-adv-x="522" 
d="M510 729h-128v-606q-37 -25 -88 -25q-73 0 -112.5 40.5t-39.5 118.5q0 172 149 172q48 0 72 -7v97q-34 10 -102 10q-52 0 -119 -26q-61 -30 -95.5 -92t-34.5 -147q0 -124 69 -195t192 -71q67 0 135 41l3 -42h99v732z" />
    <glyph glyph-name="e" unicode="e" horiz-adv-x="502" 
d="M333.5 393q29.5 -33 29.5 -93h-211l3 -89h335v49q0 126 -63 196t-177 70q-64 0 -117.5 -33t-86.5 -92q-34 -61 -34 -141t34.5 -140t99.5 -93t150 -33q99 0 171 20v94q-49 -13 -153 -13q-81 0 -126 29.5t-49 86.5q-5 48 -5 70q0 78 29 111.5t89 33.5q52 0 81.5 -33z" />
    <glyph glyph-name="f" unicode="f" horiz-adv-x="414" 
d="M224 563q0 39 29.5 60.5t81.5 21.5q26 0 78 -11v98q-50 14 -107 14q-101 0 -155 -49t-54 -138v-18h127v22zM12 420h85v-412h127v412h190v99h-402v-99z" />
    <glyph glyph-name="g" unicode="g" horiz-adv-x="523" 
d="M44 129.5q32 -56.5 91 -88.5t138 -32q45 0 96 17l-3 93q-30 -10 -71 -10q-72 0 -111.5 37.5t-39.5 108.5q0 170 147 170q44 0 92 -18l2 -374q0 -70 -12.5 -103.5t-47.5 -51.5q-40 -22 -104 -22q-50 0 -128 26l-21 7l-35 -93l20 -8q81 -33 177 -33q135 0 206 65.5
t71 188.5v521h-102l1 -45q-73 41 -154 41q-66 0 -118.5 -28t-86.5 -81q-39 -61 -39 -155q0 -76 32 -132.5z" />
    <glyph glyph-name="h" unicode="h" horiz-adv-x="492" 
d="M12 741v-732h128v732h-128zM157 390q60 21 104 21q49 0 70 -24.5t21 -79.5v-298h128v281q0 119 -44 173t-142 54q-74 0 -137 -25v-102z" />
    <glyph glyph-name="i" unicode="i" horiz-adv-x="186" 
d="M29 9h128v512h-128v-512zM36 631q-24 24 -24 57q0 35 24 58.5t57 23.5q35 0 58 -23.5t23 -58.5q0 -34 -23 -57.5t-58 -23.5q-33 0 -57 24z" />
    <glyph glyph-name="j" unicode="j" horiz-adv-x="254" 
d="M105 631q-24 24 -24 57q0 35 23.5 58.5t56.5 23.5q35 0 58 -23.5t23 -58.5q0 -34 -23 -57.5t-58 -23.5q-32 0 -56 24zM12 -210q96 4 146.5 52t50.5 135v551h-126v-555q0 -29 -16.5 -48.5t-47.5 -27.5z" />
    <glyph glyph-name="k" unicode="k" horiz-adv-x="522" 
d="M12 741v-732h128v732h-128zM153 290l203 -281h154l-206 281l197 230h-155z" />
    <glyph glyph-name="l" unicode="l" horiz-adv-x="156" 
d="M141 736h-126v-731h126v731z" />
    <glyph glyph-name="m" unicode="m" horiz-adv-x="789" 
d="M138 4v378q44 16 68.5 22t43.5 6q41 0 62 -27.5t21 -76.5v-302h127v281q0 118 -42 175.5t-133 57.5q-62 0 -133 -31l-19 -8l-15 -5l-2 41h-104v-511h126zM468 383q38 15 59.5 21t42.5 6q39 0 60 -27.5t21 -76.5v-302h126v286q0 121 -40.5 174.5t-133.5 53.5
q-38 0 -79 -11.5t-93 -35.5q28 -33 37 -88z" />
    <glyph glyph-name="n" unicode="n" horiz-adv-x="492" 
d="M138 4l-1 512h-125v-512h126zM151 388q68 20 111 20q45 0 68.5 -27.5t23.5 -76.5v-300h126v284q0 76 -13.5 119t-48.5 73q-42 36 -123 36q-77 0 -144 -27v-101z" />
    <glyph glyph-name="o" unicode="o" horiz-adv-x="549" 
d="M412 33.5q60 33.5 93 94.5q32 59 32 138q0 80 -32 140t-91 93q-61 32 -139 32q-80 0 -139 -32t-91 -92q-33 -60 -33 -142q0 -75 32.5 -134.5t92.5 -95.5q59 -35 137 -35t138 33.5zM369 385q37 -46 37 -120q0 -75 -36 -119.5t-96 -44.5q-58 0 -94.5 45t-36.5 119t36.5 120
t94.5 46t95 -46z" />
    <glyph glyph-name="p" unicode="p" horiz-adv-x="524" 
d="M156 29q31 -10 51.5 -14.5t43.5 -4.5q121 0 191 66t70 179q0 88 -33 149t-95 89q-60 27 -115 27q-80 0 -155 -42l2 42h-104v-786h128l1 666q48 18 92 18q77 0 112 -37t35 -120q0 -78 -37 -114.5t-114 -36.5q-39 0 -73 14v-95z" />
    <glyph glyph-name="q" unicode="q" horiz-adv-x="524" 
d="M368 126q-34 -14 -73 -14q-77 0 -114 36.5t-37 114.5q0 83 35 120t112 37q44 0 92 -18l1 -666h128v786h-104l2 -42q-75 42 -155 42q-62 0 -120.5 -30t-89.5 -87q-33 -61 -33 -148q0 -113 70 -179t191 -66q23 0 43.5 4.5t51.5 14.5v95z" />
    <glyph glyph-name="r" unicode="r" horiz-adv-x="362" 
d="M12 521v-510h128l-2 510h-126zM153 407q43 12 74 12q73 0 109 -33l14 120q-48 15 -86 15q-49 0 -111 -20v-94z" />
    <glyph glyph-name="s" unicode="s" horiz-adv-x="435" 
d="M30 31q90 -31 163 -31q110 0 170 41t60 116q0 47 -18 77t-54 48q-48 20 -90 32l-27 8q-60 16 -77 29q-13 9 -19 16.5t-6 18.5q0 20 20 31q27 10 78 10q44 0 131 -22v107q-80 19 -132 19q-108 0 -162.5 -35.5t-54.5 -104.5q0 -55 27.5 -91.5t67.5 -52.5q44 -17 102 -34
q59 -21 70 -27q22 -9 22 -28q0 -25 -23 -37t-78 -12q-65 0 -170 37v-115z" />
    <glyph glyph-name="t" unicode="t" horiz-adv-x="413" 
d="M224 656h-127v-130h127v130zM12 409h85v-234q0 -94 42 -135t141 -41q17 0 50 6l70 17v96q-63 -15 -92 -15q-84 0 -84 75v231h176h1v100h-389v-100z" />
    <glyph glyph-name="u" unicode="u" horiz-adv-x="492" 
d="M354 508l1 -512h125v512h-126zM341 124q-68 -20 -111 -20q-45 0 -68.5 27.5t-23.5 76.5v300h-126v-284q0 -76 13.5 -119t48.5 -73q42 -36 123 -36q77 0 144 27v101z" />
    <glyph glyph-name="v" unicode="v" horiz-adv-x="516" 
d="M154 508h-142l197 -512h5l52 163zM338 -4l190 512h-133l-165 -512h108z" />
    <glyph glyph-name="w" unicode="w" horiz-adv-x="859" 
d="M148 507h-136l183 -512l51 172zM502 507h-140l-154 -512h109l116 362l113 -362h9l47 168zM663 -5l184 512h-136l-105 -372v2l-39 -142h96z" />
    <glyph glyph-name="x" unicode="x" horiz-adv-x="544" 
d="M159 508h-147l180 -263l69 103zM167 -4l101 160l108 -160h156l-180 255l176 257h-147l-343 -512h129z" />
    <glyph glyph-name="y" unicode="y" horiz-adv-x="605" 
d="M157 509h-145l227 -507l59 139zM267 -277l326 786h-133l-327 -786h134z" />
    <glyph glyph-name="z" unicode="z" horiz-adv-x="459" 
d="M13 508l-1 -112h226l80 112h-305zM33 62v-66h414l-1 108h-249l220 336l-2 68h-86l-80 -114z" />
    <glyph glyph-name="braceleft" unicode="{" horiz-adv-x="309" 
d="M15 425q38 0 56 7q10 5 14 8q2 2 2 8v253q0 107 79 147q26 12 54 16t74 4v-112q-34 0 -51 -1.5t-28 -6.5q-16 -6 -16 -47v-253q0 -46 -30 -81q30 -33 30 -79v-249q0 -25 6 -34q5 -9 14.5 -14t27.5 -6q24 -2 47 -2v-111q-44 0 -72 4t-53 16q-40 19 -61 56.5t-21 90.5v249
q0 5 -2 7q-7 7 -21 11.5t-29 6.5l-20 1v111z" />
    <glyph glyph-name="bar" unicode="|" horiz-adv-x="126" 
d="M111 -168h-96v966h96v-966z" />
    <glyph glyph-name="braceright" unicode="}" horiz-adv-x="309" 
d="M15 -17q33 0 49.5 1.5t27.5 7.5q9 5 14 13q5 10 5 34v249q0 47 29 79q-29 35 -29 81v253q0 25 -6 36t-14.5 14t-25.5 4q-13 1 -50 1v112q46 0 74.5 -4t53.5 -16q79 -40 79 -147v-253q0 -6 2 -8q4 -3 14 -8q18 -7 56 -7v-111q-26 0 -49 -8q-11 -3 -15 -6q-2 -1 -4.5 -3
t-3 -4t-0.5 -5v-249q0 -54 -21 -91.5t-61 -55.5q-25 -12 -53 -16t-72 -4v111z" />
    </font>
</defs>
</svg>
