<?xml version="1.0" encoding="UTF-8"?><svg id="Icon" xmlns="http://www.w3.org/2000/svg" xmlns:xlink="http://www.w3.org/1999/xlink" viewBox="0 0 832.24 130.55"><defs><style>.cls-1{fill:url(#linear-gradient-4);}.cls-1,.cls-2,.cls-3,.cls-4,.cls-5,.cls-6,.cls-7,.cls-8,.cls-9,.cls-10,.cls-11{fill-rule:evenodd;}.cls-2{opacity:.1;}.cls-3{fill:#f7f26b;}.cls-3,.cls-8,.cls-9{opacity:.3;}.cls-12{letter-spacing:-.01em;}.cls-4{fill:url(#linear-gradient-2);}.cls-5{fill:url(#linear-gradient);}.cls-6{fill:url(#linear-gradient-6);}.cls-7{fill:url(#linear-gradient-5);}.cls-8{fill:#eefa72;}.cls-9{fill:#5efaf7;}.cls-10{fill:#01052d;opacity:.2;}.cls-13{letter-spacing:-.04em;}.cls-14{fill:#efefef;font-family:AwerikRegular, Awerik;font-size:74.89px;}.cls-11{fill:url(#linear-gradient-3);}</style><linearGradient id="linear-gradient" x1="125.23" y1="87.86" x2="45.21" y2="-.57" gradientUnits="userSpaceOnUse"><stop offset="0" stop-color="#10bdca"/><stop offset="1" stop-color="#53fdca"/></linearGradient><linearGradient id="linear-gradient-2" x1="125.67" y1="94.57" x2="42.04" y2="16.54" gradientUnits="userSpaceOnUse"><stop offset="0" stop-color="#117c60"/><stop offset="1" stop-color="#1ac688"/></linearGradient><linearGradient id="linear-gradient-3" x1="120.88" y1="82.56" x2="-2.36" y2="123.77" xlink:href="#linear-gradient"/><linearGradient id="linear-gradient-4" x1="114.72" y1="72.87" x2="-40.93" y2="127.69" xlink:href="#linear-gradient-2"/><linearGradient id="linear-gradient-5" x1="2.55" y1="110.68" x2="43.36" y2="-2.56" xlink:href="#linear-gradient"/><linearGradient id="linear-gradient-6" x1="18.38" y1="104.44" x2="54.39" y2="-5.59" xlink:href="#linear-gradient-2"/></defs><g><path class="cls-2" d="m52.67,98.87c-5.54,0-10.9-.75-15.99-2.16.6,6.25,1.8,12.45,3.6,18.52,18.6-4.47,35.53-14.2,48.7-28.08l-.28-.29c-10.04,7.54-22.51,12.01-36.04,12.01Z"/><path class="cls-5" d="m84.79,16.32L56.53,0c-8.25,9.96-14.45,21.31-18.4,33.37,21.74,4.54,40.95,15.97,55.23,31.92,8.47,9.46,15.2,20.5,19.7,32.62V32.64h-.01s-28.25-16.32-28.25-16.32Z"/><path class="cls-3" d="m47.94,12.06c.06-.1.13-.2.19-.3h0s-.19.3-.19.3Z"/><path class="cls-3" d="m48.73,10.78c-.2.32-.4.65-.6.97,35.48,13.75,61.38,46.72,64.92,86.13v.03c-.77-24.44-11.98-47.11-28.74-63.87-10.09-10.1-22.27-18.07-35.58-23.26Z"/><path class="cls-4" d="m48.13,11.75c-4.18,6.82-7.53,14.08-10,21.62,21.74,4.54,40.95,15.97,55.23,31.92,8.46,9.45,15.19,20.48,19.69,32.59-3.54-39.42-29.44-72.38-64.92-86.13Z"/><path class="cls-11" d="m38.1,97.16c-12.42,2.61-25.35,2.92-38.1.75l28.27,16.32,28.27,16.32h0s28.26-16.32,28.26-16.32l28.27-16.32c-4.5-12.13-11.23-23.17-19.7-32.62-14.8,16.56-34.31,27.48-55.25,31.87Z"/><path class="cls-9" d="m38.1,97.16c-12.42,2.61-25.35,2.92-38.1.75,21.32,11.41,46.79,13.17,69.69,7.03,13.79-3.69,26.79-10.25,37.93-19.18-3.92-7.41-8.72-14.28-14.27-20.48-14.8,16.56-34.31,27.48-55.25,31.87Z"/><path class="cls-1" d="m38.1,97.16c-12.41,2.6-25.33,2.92-38.07.76,35.91,16.64,77.41,10.7,107.06-13.15-3.82-7.03-8.43-13.56-13.73-19.47-14.8,16.56-34.31,27.48-55.25,31.87Z"/><path class="cls-7" d="m0,32.64h0v65.28c12.75,2.17,25.68,1.85,38.1-.75-6.94-21.1-6.64-43.45.02-63.79,3.96-12.06,10.15-23.41,18.4-33.37l-28.27,16.32L0,32.64Z"/><path class="cls-8" d="m15.59,56.84c-3.7,13.79-4.52,28.32-2.36,42.44,8.38.31,16.73-.41,24.87-2.12-6.94-21.1-6.64-43.45.02-63.79,3.96-12.06,10.15-23.41,18.4-33.37C35.72,13.43,21.73,33.94,15.59,56.84Z"/><path class="cls-10" d="m38.13,33.37c6.11,1.27,12.01,3.09,17.67,5.4C51.07,13.77,56.51.02,56.51.02c-8.24,9.96-14.43,21.3-18.38,33.35Z"/><path class="cls-6" d="m14.38,99.31c7.99.21,15.96-.52,23.73-2.15-6.94-21.1-6.64-43.45.02-63.79C42.08,21.32,48.27,9.98,56.51.02,24.15,22.8,8.54,61.71,14.38,99.31Z"/><path class="cls-10" d="m14.38,99.31c1.58.04,3.15.05,4.73.01C10.77,47.69,38.61,15,56.45.07,24.13,22.84,8.55,61.73,14.38,99.31Z"/><path class="cls-10" d="m79.86,77.92c24.02,8.41,33.2,20,33.2,20-4.5-12.11-11.23-23.14-19.69-32.59-4.16,4.65-8.68,8.86-13.51,12.6Z"/><path class="cls-10" d="m0,97.91c12.74,2.16,25.66,1.85,38.07-.76-1.95-5.92-3.33-11.95-4.15-18C14.62,95.75,0,97.91,0,97.91Z"/><path class="cls-10" d="m48.45,11.94c-.83,1.34-1.62,2.7-2.39,4.08,48.63,18.66,62.98,58.98,66.98,81.86-3.56-39.27-29.3-72.12-64.6-85.94Z"/><path class="cls-10" d="m0,97.91c35.89,16.6,77.36,10.65,106.99-13.19-.75-1.39-1.54-2.75-2.35-4.1C64.09,113.66,21.86,105.9,0,97.91Z"/></g><text class="cls-14" transform="translate(151.14 90.98) scale(.77 1)"><tspan x="0" y="0">Ex</tspan><tspan class="cls-12" x="147.62" y="0">z</tspan><tspan x="219.89" y="0">o Net</tspan><tspan class="cls-13" x="565.07" y="0">w</tspan><tspan x="663.78" y="0">ork</tspan></text></svg>